<svg xmlns="http://www.w3.org/2000/svg" width="25.381" height="27.064" viewBox="0 0 25.381 27.064">
  <path id="bu-submit-o" d="M152.662,104.317a4.083,4.083,0,0,0-2.1-1.692,5.047,5.047,0,0,0-1.8-.225H132.407a6.49,6.49,0,0,0-1.585.129,4,4,0,0,0-2.976,3.821V125.4a4.022,4.022,0,0,0,1.3,3.033,4.1,4.1,0,0,0,2.548,1.03c.186.01.374,0,.56,0h7.206a.819.819,0,1,0,0-1.637h-7.612c-.083,0-.167,0-.25-.008l-.069-.007-.037-.005a2.864,2.864,0,0,1-.563-.157l-.107-.051q-.121-.062-.237-.132-.085-.056-.167-.117a3.212,3.212,0,0,1-.35-.328l-.074-.086a3.1,3.1,0,0,1-.294-.491l-.01-.024a2.885,2.885,0,0,1-.161-.592q-.01-.084-.017-.169c0-.047,0-.1,0-.144V106.348q0-.154.015-.308a3.151,3.151,0,0,1,.152-.567.05.05,0,0,1,.007-.019l.036-.074a2.875,2.875,0,0,1,.272-.445,3.92,3.92,0,0,1,.3-.313l.113-.095a3.058,3.058,0,0,1,.462-.281l.066-.03.029-.012a3.011,3.011,0,0,1,.535-.145l.022,0,.134-.012c.078-.005.156-.005.232-.005h17.408c.09,0,.181.008.271.017a2.61,2.61,0,0,1,.433.1l.144.052a3.282,3.282,0,0,1,.529.3l.025.02a2.886,2.886,0,0,1,.391.391l.076.107a3.021,3.021,0,0,1,.23.416l.061.156a2.779,2.779,0,0,1,.083.31l.024.12c.01.088.014.178.017.267v11.677a.829.829,0,0,0,1.658,0V106.363a3.958,3.958,0,0,0-.565-2.047Zm-.846,17.347-3.224,3.324-2.444,2.52-1.788-1.577a.845.845,0,0,0-1.171,0,.817.817,0,0,0,0,1.159l2.419,2.133a.845.845,0,0,0,1.171,0L150,125.9l2.986-3.077a.822.822,0,0,0,0-1.159A.842.842,0,0,0,151.817,121.664Zm-5.237-10.779a.851.851,0,0,0,0-1.7h-12a.851.851,0,0,0,0,1.7h12Zm-11.943,5.943h11.885a.849.849,0,0,0,0-1.7H134.637a.849.849,0,0,0,0,1.7Zm5.119,4.244h-5.142a.85.85,0,0,0,0,1.7h5.142a.85.85,0,0,0,0-1.7Z" transform="translate(-127.847 -102.4)" fill="#768dea"/>
</svg>
