<svg xmlns="http://www.w3.org/2000/svg" width="25.556" height="25.556" viewBox="0 0 25.556 25.556">
  <path id="Path_209344" data-name="Path 209344" d="M7.8,9.415a12.937,12.937,0,0,0,4.843,4.843l1.083-1.517a1.226,1.226,0,0,1,1.586-.363,14,14,0,0,0,5.617,1.672,1.226,1.226,0,0,1,1.129,1.222V20.74a1.226,1.226,0,0,1-1.1,1.219A19.008,19.008,0,0,1,.1,1.1,1.226,1.226,0,0,1,1.32,0H6.788A1.226,1.226,0,0,1,8.01,1.129,14,14,0,0,0,9.682,6.746a1.226,1.226,0,0,1-.363,1.586L7.8,9.415ZM4.711,8.61,7.04,6.947A16.435,16.435,0,0,1,5.7,2.451H2.463c-.007.2-.011.408-.011.613A16.543,16.543,0,0,0,19,19.609c.2,0,.409,0,.613-.012V16.365a16.435,16.435,0,0,1-4.5-1.344l-1.663,2.329A15.249,15.249,0,0,1,11.5,16.43l-.071-.04a15.388,15.388,0,0,1-5.763-5.763l-.04-.071A15.248,15.248,0,0,1,4.711,8.61Z" transform="matrix(0.985, 0.174, -0.174, 0.985, 3.831, 0)" fill="#f6f6f6"/>
</svg>
