<svg xmlns="http://www.w3.org/2000/svg" xmlns:xlink="http://www.w3.org/1999/xlink" width="23.96" height="15.034" viewBox="0 0 23.96 15.034">
  <defs>
    <linearGradient id="linear-gradient" x1="-0.449" y1="0.125" x2="1" y2="0.5" gradientUnits="objectBoundingBox">
      <stop offset="0" stop-color="#fada35"/>
      <stop offset="1" stop-color="#efb300"/>
    </linearGradient>
  </defs>
  <g id="payment-method-svgrepo-com_2_" data-name="payment-method-svgrepo-com (2)" transform="translate(23.96) rotate(90)">
    <path id="Path_208913" data-name="Path 208913" d="M5.3,19.224a.9.9,0,1,0,.9.9A.9.9,0,0,0,5.3,19.224Zm0-.577a3.258,3.258,0,0,0,2.116-5.737,2.4,2.4,0,0,1-1.07.244c-.083,0-.171,0-.239-.01a1.828,1.828,0,0,1-1.329-.826c-.029-.044-.059-.088-.083-.132a3.258,3.258,0,0,0,.606,6.46ZM4.183,14.68a.89.89,0,0,1,.274-.65,1.166,1.166,0,0,1,.679-.293v-.362a.088.088,0,0,1,.088-.088h.323a.088.088,0,0,1,.088.088v.371a1,1,0,0,1,.533.259.824.824,0,0,1,.244.621.785.785,0,0,1-.239.621,2.75,2.75,0,0,1-.753.435.85.85,0,0,0-.3.191.374.374,0,0,0-.083.249.407.407,0,0,0,.073.249.279.279,0,0,0,.235.1.306.306,0,0,0,.249-.117.5.5,0,0,0,.088-.269.1.1,0,0,1,.1-.088l.528.01a.1.1,0,0,1,.1.108.949.949,0,0,1-.225.582.963.963,0,0,1-.557.313v.4a.088.088,0,0,1-.088.088H5.219a.088.088,0,0,1-.088-.088v-.386a1.043,1.043,0,0,1-.6-.274.825.825,0,0,1-.254-.616A.789.789,0,0,1,4.52,15.5a2.552,2.552,0,0,1,.757-.42.868.868,0,0,0,.3-.191.411.411,0,0,0,.083-.269.361.361,0,0,0-.083-.244.3.3,0,0,0-.239-.093.4.4,0,0,0-.308.122.5.5,0,0,0-.117.3.105.105,0,0,1-.1.093l-.528-.01A.112.112,0,0,1,4.183,14.68Zm10.252-4.061c-.269.21-3.079,3.328-3.831,3.768v8.088A1.485,1.485,0,0,1,9.119,23.96H1.486A1.485,1.485,0,0,1,0,22.474V8.317A1.485,1.485,0,0,1,1.486,6.832H4.809L4.672,7.995l-.117.1H3.088a1.567,1.567,0,0,1,.034.567A1.506,1.506,0,0,1,1.974,9.93a1.486,1.486,0,0,1-.7,0V20.954a1.437,1.437,0,0,1,.8.073,1.531,1.531,0,0,1,.723.591,1.444,1.444,0,0,1,.23,1.08H7.584a1.448,1.448,0,0,1,.22-1.065,1.477,1.477,0,0,1,1.534-.674V10.2h0V7.115a5.661,5.661,0,0,0-1.1,1.574s-.283,3.176-1.891,3.176a1.1,1.1,0,0,1-.127,0s-1.217-.1-.21-3.587l.45-3.865A8.783,8.783,0,0,1,8.351.855V.42A.42.42,0,0,1,8.772,0H13.3a.418.418,0,0,1,.415.371A75.876,75.876,0,0,0,14.856,8.3a2.449,2.449,0,0,1,.156.552A1.89,1.89,0,0,1,14.435,10.619Z" fill="url(#linear-gradient)"/>
  </g>
</svg>
