<svg xmlns="http://www.w3.org/2000/svg" width="35.797" height="35.986" viewBox="0 0 35.797 35.986">
  <g id="Group_1333" data-name="Group 1333" transform="translate(2 2)">
    <g id="Ellipse_163" data-name="Ellipse 163" fill="none" stroke="#707070" stroke-miterlimit="10" stroke-width="2">
      <ellipse cx="15.898" cy="15.993" rx="15.898" ry="15.993" stroke="none"/>
      <ellipse cx="15.898" cy="15.993" rx="16.898" ry="16.993" fill="none"/>
    </g>
    <g id="Group_1332" data-name="Group 1332" transform="translate(7.651 9.352)">
      <path id="Path_10488" data-name="Path 10488" d="M8999.842,3002.961c.2-.2.4-.393.6-.59q1.828-1.836,3.655-3.675,1.9-1.913,3.8-3.828c.081-.08.157-.161.237-.238a.71.71,0,0,1,1.021-.016q.763.748,1.5,1.521a.67.67,0,0,1,0,.965c-.513.539-1.037,1.061-1.561,1.587l-3.357,3.381-3.318,3.334c-.652.66-1.314,1.317-1.964,1.981a.746.746,0,0,1-1.21.012q-2.249-2.265-4.492-4.53-.806-.811-1.606-1.627a.747.747,0,0,1,0-1.176q.672-.678,1.348-1.355a.722.722,0,0,1,1.135,0q2.011,2.032,4.012,4.068C8999.7,3002.832,8999.763,3002.887,8999.842,3002.961Z" transform="translate(-8992.862 -2994.405)" fill="#707070"/>
    </g>
  </g>
</svg>
