<svg xmlns="http://www.w3.org/2000/svg" width="29.493" height="29.644" viewBox="0 0 29.493 29.644">
  <g id="Group_96242" data-name="Group 96242" transform="translate(2 2)">
    <g id="Ellipse_163" data-name="Ellipse 163" fill="none" stroke="#3a53ff" stroke-miterlimit="10" stroke-width="2">
      <ellipse cx="12.746" cy="12.822" rx="12.746" ry="12.822" stroke="none"/>
      <ellipse cx="12.746" cy="12.822" rx="13.746" ry="13.822" fill="none"/>
    </g>
    <g id="Group_1332" data-name="Group 1332" transform="translate(6.134 7.497)">
      <path id="Path_10488" data-name="Path 10488" d="M8998.457,3001.265c.163-.161.322-.315.479-.473q1.466-1.472,2.931-2.946,1.525-1.534,3.044-3.069c.063-.064.126-.129.19-.19a.568.568,0,0,1,.818-.013q.612.6,1.207,1.219a.538.538,0,0,1,0,.774c-.41.432-.831.851-1.251,1.272l-2.692,2.71-2.659,2.673c-.523.529-1.055,1.056-1.576,1.588a.6.6,0,0,1-.97.009q-1.8-1.816-3.6-3.632-.646-.65-1.288-1.3a.6.6,0,0,1,0-.943q.539-.543,1.081-1.086a.579.579,0,0,1,.91,0q1.61,1.629,3.215,3.262C8998.345,3001.161,8998.395,3001.206,8998.457,3001.265Z" transform="translate(-8992.861 -2994.405)" fill="#3a53ff"/>
    </g>
  </g>
</svg>
