<svg xmlns="http://www.w3.org/2000/svg" width="32.671" height="32.841" viewBox="0 0 32.671 32.841">
  <g id="Group_96242" data-name="Group 96242" transform="translate(2 2)">
    <g id="Ellipse_163" data-name="Ellipse 163" fill="none" stroke="#fdbc26" stroke-miterlimit="10" stroke-width="2">
      <ellipse cx="14.335" cy="14.421" rx="14.335" ry="14.421" stroke="none"/>
      <ellipse cx="14.335" cy="14.421" rx="15.335" ry="15.421" fill="none"/>
    </g>
    <g id="Group_1332" data-name="Group 1332" transform="translate(6.899 8.432)">
      <path id="Path_10488" data-name="Path 10488" d="M8999.154,3002.119c.184-.18.363-.354.539-.532q1.649-1.655,3.3-3.313,1.714-1.725,3.424-3.452c.07-.072.141-.145.213-.214a.638.638,0,0,1,.92-.014q.691.674,1.357,1.371a.605.605,0,0,1,0,.87c-.461.485-.936.957-1.408,1.431q-1.512,1.525-3.027,3.048-1.494,1.5-2.99,3.006c-.59.6-1.186,1.187-1.773,1.786a.672.672,0,0,1-1.09.011l-4.051-4.084q-.727-.732-1.447-1.468a.673.673,0,0,1,0-1.061q.606-.612,1.217-1.222a.652.652,0,0,1,1.023,0q1.811,1.833,3.615,3.669C8999.027,3002,8999.084,3002.053,8999.154,3002.119Z" transform="translate(-8992.861 -2994.405)" fill="#fdbc26"/>
    </g>
  </g>
</svg>
