<svg id="commercial-filled-card-svgrepo-com" xmlns="http://www.w3.org/2000/svg" width="20.457" height="16.453" viewBox="0 0 20.457 16.453">
  <path id="Path_208972" data-name="Path 208972" d="M19.186,178.55H1.271A1.48,1.48,0,0,0,0,180.171v13.21A1.48,1.48,0,0,0,1.271,195H19.186a1.48,1.48,0,0,0,1.271-1.621v-13.21A1.48,1.48,0,0,0,19.186,178.55Zm-1.144,12.673a.738.738,0,0,1-.635.811H10.07a.738.738,0,0,1-.635-.811V187.94a.738.738,0,0,1,.635-.811h7.338a.738.738,0,0,1,.635.811Zm-.635-6.5H3.049a.835.835,0,0,1,0-1.621H17.407a.835.835,0,0,1,0,1.621Z" transform="translate(0 -178.55)" fill="#879eff"/>
</svg>
