<svg xmlns="http://www.w3.org/2000/svg" width="24.162" height="17.879" viewBox="0 0 24.162 17.879">
  <g id="Group_97649" data-name="Group 97649" transform="translate(-828.045 -446.216)">
    <path id="Path_209520" data-name="Path 209520" d="M830.631,450.915c-.031-.493-.067-.946-.088-1.4a1.01,1.01,0,0,1,.987-1.1c1.212-.14,2.419-.316,3.629-.473q.673-.088,1.348-.161c.7-.075,1.393-.129,2.087-.216,1.141-.143,2.28-.308,3.42-.459q.708-.094,1.418-.171c.719-.077,1.44-.132,2.157-.222,1.106-.139,2.208-.31,3.315-.447a8.253,8.253,0,0,1,1.191-.043.8.8,0,0,1,.709.611c.125.792.227,1.587.34,2.381.1.713.207,1.426.31,2.138.008.058.012.116.019.174.126,1.2.247,2.41.381,3.614.106.948.242,1.892.342,2.841.081.766-.32,1.169-1.091,1.238-.821.074-1.637.214-2.495.331v.392c0,1.007-.03,2.015.011,3.02a1.157,1.157,0,0,1-1.133,1.136q-9.147-.017-18.294,0a1.17,1.17,0,0,1-1.149-1.156q.029-5.426,0-10.852a1.14,1.14,0,0,1,1.13-1.135c.374.018.749.005,1.123,0A3.257,3.257,0,0,0,830.631,450.915Zm16.962,12.149v-6.7h-18.5v6.7Zm-16.065-13.588c.025.307.055.6.072.885.034.581.031.582.6.582,5.09,0,10.179.008,15.269-.01a1.18,1.18,0,0,1,1.162,1.146c-.034,2-.013,4-.012,6v.445c.722-.083,1.389-.158,2.054-.237a1.289,1.289,0,0,0,.373-.08c.075-.034.175-.135.172-.2-.017-.4-.046-.792-.1-1.185-.143-1.059-.307-2.116-.45-3.175-.122-.91-.232-1.823-.338-2.735-.128-1.11-.257-2.221-.361-3.333-.027-.291-.127-.4-.411-.357-.379.058-.758.113-1.138.16q-1.437.178-2.875.347c-.924.11-1.848.214-2.772.325-.9.108-1.8.227-2.7.329-1.18.133-2.361.254-3.541.381-.069.008-.138.021-.208.031-.644.1-1.286.2-1.931.284-.7.087-1.412.139-2.117.224A7.118,7.118,0,0,0,831.528,449.476Zm16.07,2.51H829.088v1.639H847.6Zm0,2.688H829.1v.631h18.5Z" transform="translate(0)" fill="#879eff"/>
    <path id="Path_209521" data-name="Path 209521" d="M857.737,561.31h-18.5v-6.7h18.5Zm-6.024-4.018v2.662h4.361c0-.8-.012-1.568.006-2.339.006-.277-.1-.331-.349-.328-1.006.011-2.013,0-3.019,0Zm-11.475.978h5.718a4.556,4.556,0,0,1,0-.579c.045-.337-.1-.407-.414-.4-1.638.013-3.276.006-4.914.007-.125,0-.251.01-.394.017Zm4.007.737h-4v.957h4Z" transform="translate(-10.14 -98.258)" fill="#879eff"/>
    <path id="Path_209522" data-name="Path 209522" d="M865.245,459.123a7.131,7.131,0,0,1,.752-.172c.7-.085,1.413-.137,2.117-.224.646-.08,1.288-.188,1.931-.284.069-.01.138-.024.208-.031,1.18-.127,2.362-.248,3.541-.381.9-.1,1.8-.221,2.7-.329.924-.111,1.848-.215,2.772-.325q1.438-.171,2.875-.347c.38-.047.759-.1,1.138-.16.284-.043.384.066.411.357.1,1.113.233,2.223.361,3.334.105.912.215,1.825.338,2.735.143,1.059.307,2.116.45,3.175.053.392.082.789.1,1.185,0,.067-.1.168-.172.2a1.289,1.289,0,0,1-.373.08c-.666.08-1.332.154-2.054.237v-.445c0-2-.022-4,.012-6a1.18,1.18,0,0,0-1.162-1.146c-5.089.018-10.179.01-15.269.01-.57,0-.567,0-.6-.582C865.3,459.719,865.27,459.43,865.245,459.123Z" transform="translate(-33.717 -9.648)" fill="#fff"/>
    <path id="Path_209523" data-name="Path 209523" d="M857.7,507.839v1.639H839.191v-1.639Z" transform="translate(-10.103 -55.853)" fill="#879eff"/>
    <path id="Path_209524" data-name="Path 209524" d="M857.781,536.546v.631h-18.5v-.631Z" transform="translate(-10.185 -81.873)" fill="#fff"/>
    <path id="Path_209525" data-name="Path 209525" d="M972.494,583.2h1c1.006,0,2.013.006,3.019,0,.247,0,.355.051.349.328-.018.77-.006,1.541-.006,2.339h-4.361Zm1,1.67h2.326v-.652H973.5Z" transform="translate(-130.925 -124.156)" fill="#fff"/>
    <path id="Path_209526" data-name="Path 209526" d="M849.929,584.161v-.96c.144-.006.269-.017.394-.017,1.638,0,3.276.006,4.914-.007.311,0,.459.068.414.4a4.546,4.546,0,0,0,0,.58Z" transform="translate(-19.835 -124.137)" fill="#fff"/>
    <path id="Path_209527" data-name="Path 209527" d="M854.005,601.558v.957h-4v-.957Z" transform="translate(-19.904 -140.798)" fill="#fff"/>
    <path id="Path_209528" data-name="Path 209528" d="M983.191,594.772v-.652h2.326v.652Z" transform="translate(-140.621 -134.056)" fill="#fff"/>
  </g>
</svg>
