<svg xmlns="http://www.w3.org/2000/svg" width="33.737" height="31.045" viewBox="0 0 33.737 31.045">
  <path id="Path_10336" data-name="Path 10336" d="M8507.873,3116.88l4.681,3.185a5.168,5.168,0,0,1,1.243,4.59,17.036,17.036,0,0,1-.837,3.17,31.444,31.444,0,0,1-1.358,2.86l-1.324,1.949c-.124.121-.246.242-.372.361a37.829,37.829,0,0,1-3.3,3.071c-1.721,1.276-3.645,2.013-5.827,1.09l-4.484-3.052a4.862,4.862,0,0,1-1.364-4.319,15.267,15.267,0,0,1,.708-3.079c.374-1.084.924-2.107,1.406-3.179l-1.476-1c-.134.157-.247.313-.383.446a37.32,37.32,0,0,1-3.254,3.038c-1.732,1.288-3.667,2.069-5.874,1.131l-4.483-3.052a4.9,4.9,0,0,1-1.369-4.371,13.87,13.87,0,0,1,.707-3.017c.414-1.135,1-2.2,1.515-3.3l1.327-1.95c.146-.151.307-.294.439-.457a14.656,14.656,0,0,1,3.914-3.437,5.579,5.579,0,0,1,5.045-.693l4.68,3.185a4.934,4.934,0,0,1,1.262,4.245,20.655,20.655,0,0,1-.893,3.577,26.35,26.35,0,0,1-1.234,2.674l1.493,1.017a5.019,5.019,0,0,1,.384-.447,37.737,37.737,0,0,1,3.254-3.041C8503.8,3116.8,8505.7,3116.058,8507.873,3116.88Zm1.456,12.936c.328-.671.96-1.825,1.468-3.031a7.32,7.32,0,0,0,.615-3.847c-.146-1.061-.748-1.5-1.777-1.206a6.652,6.652,0,0,0-1.917.858,15.13,15.13,0,0,0-6.286,9.256,6.338,6.338,0,0,0-.048,2.211,1.141,1.141,0,0,0,1.558,1.067,7.487,7.487,0,0,0,2.048-.843A15.271,15.271,0,0,0,8509.329,3129.817Zm-14.3-10.558c.492-1.222,1-2.307,1.367-3.435a7.967,7.967,0,0,0,.358-2.194c.042-1.824-.819-2.4-2.5-1.722a7.088,7.088,0,0,0-1.249.649,15.293,15.293,0,0,0-5.468,6.7,8.369,8.369,0,0,0-.937,4.5c.139,1.186.778,1.635,1.925,1.3,2.173-.629,3.652-2.177,5.091-3.918l-2.564-1.746,1.32-1.945Z" transform="translate(-8480.151 -3106.525)" fill="#847333"/>
</svg>
