<svg xmlns="http://www.w3.org/2000/svg" width="24.873" height="24.196" viewBox="0 0 24.873 24.196">
  <g id="Group_97650" data-name="Group 97650" transform="translate(-686.476 -256.685)">
    <path id="Path_209529" data-name="Path 209529" d="M686.5,266.446a.6.6,0,0,1,.271-.7q5.938-4.421,11.859-8.867c.35-.262.224-.252.559,0q5.929,4.434,11.86,8.865a.626.626,0,0,1,.279.7.492.492,0,0,1-.245.021c-.982,0-1.97-.074-2.943.022a25.423,25.423,0,0,1-3.067.05,12.415,12.415,0,0,0-1.864-.055,20.3,20.3,0,0,1-3.09.055,15.608,15.608,0,0,0-1.819-.06,28.178,28.178,0,0,1-3.333.033,12.622,12.622,0,0,0-1.453-.036,23.794,23.794,0,0,1-3.441.035c-1.156-.059-2.31-.012-3.464-.044A.214.214,0,0,1,686.5,266.446Z" fill="#879eff"/>
    <path id="Path_209530" data-name="Path 209530" d="M736.715,739.764a.216.216,0,0,0-.011.039c-.068.051-.146.027-.219.027q-10.911,0-21.821,0a.737.737,0,0,1-.2-.011,7.572,7.572,0,0,1,0-1.371c.608,0,1.217-.01,1.825-.008.129,0,.225-.013.215-.173a.541.541,0,0,1,.326-.065c.931,0,1.862,0,2.792-.005.2,0,.3.058.338.247l1.418,0c.1-.284.1-.288.428-.289q1.332-.007,2.664,0c.335,0,.335.006.43.288h1.419c.044-.2.182-.243.365-.243.929,0,1.857,0,2.786,0a.337.337,0,0,1,.307.109c.006.109.073.128.169.127.391,0,.783-.005,1.174,0,.116,0,.161-.035.157-.154-.007-.2,0-.406,0-.609,0-.108.037-.147.143-.143.173.006.346,0,.519,0a.475.475,0,0,1,.337-.1q.724-.006,1.448,0a.474.474,0,0,1,.337.1c.21,0,.479-.087.615.034s.048.4.041.607.041.274.258.266c.5-.018,1,0,1.495-.01.189,0,.266.032.255.243C736.7,739.038,736.714,739.4,736.715,739.764Z" transform="translate(-26.686 -458.954)" fill="#879eff"/>
    <path id="Path_209531" data-name="Path 209531" d="M834.975,545.332c0-1.124,0-2.249,0-3.373,0-.185.047-.246.239-.243.626.012,1.253-.009,1.879.009a2.038,2.038,0,0,1,1.942,2.457,1.856,1.856,0,0,1-.477.886c-.112.119-.129.18-.017.321a2.084,2.084,0,0,1,.331,2.17,2.043,2.043,0,0,1-1.7,1.353,9.934,9.934,0,0,1-1.266.02c-.242,0-.484-.012-.724,0-.185.012-.228-.055-.226-.231.007-1.124,0-2.249,0-3.374Z" transform="translate(-141.744 -272.112)" fill="#879eff"/>
    <path id="Path_209532" data-name="Path 209532" d="M1062.071,544.93c0,.51-.005,1.019,0,1.529.008.641.024,1.282.042,1.922,0,.129-.027.193-.174.188-.294-.01-.589-.008-.883,0-.13,0-.18-.047-.168-.172,0-.022,0-.045,0-.068,0-2.241,0-4.483-.012-6.724,0-.2.051-.269.252-.254.255.019.57-.076.752.042s.23.438.331.672q.652,1.515,1.3,3.031c.029.067.062.133.123.263,0-.476,0-.884,0-1.293q-.014-1.267-.037-2.534c0-.142.05-.183.184-.18.256.007.514.014.77,0,.191-.012.239.054.239.241q-.01,2.626,0,5.253,0,.758.016,1.516c0,.153-.043.219-.206.209-.255-.016-.562.071-.751-.044s-.238-.418-.344-.641q-.7-1.48-1.4-2.961Z" transform="translate(-357.43 -271.746)" fill="#879eff"/>
    <path id="Path_209533" data-name="Path 209533" d="M944.571,541.735c.2,0,.393.009.589,0,.155-.01.212.055.236.2q.381,2.229.769,4.457.2,1.147.4,2.295c.046.263.047.264-.221.264s-.544-.006-.815,0c-.134,0-.194-.046-.207-.176a2.778,2.778,0,0,1-.047-.335c.006-.244-.094-.324-.339-.306-.308.023-.619.01-.928,0-.127,0-.193.028-.2.171-.01.165-.054.327-.074.491-.012.1-.047.15-.154.149-.325,0-.649,0-.974,0-.17,0-.13-.1-.112-.2.173-.965.344-1.93.518-2.894.236-1.305.478-2.61.707-3.916.028-.161.083-.22.244-.211C944.163,541.744,944.367,541.735,944.571,541.735Z" transform="translate(-244.394 -272.126)" fill="#879eff"/>
    <path id="Path_209534" data-name="Path 209534" d="M774.251,545.305c0,1.125,0,2.25,0,3.375,0,.174-.04.242-.226.232-.279-.016-.559-.013-.838,0-.169.007-.22-.049-.219-.219.007-.951,0-1.9,0-2.854,0-1.3.009-2.6,0-3.9,0-.2.057-.264.255-.251a5.757,5.757,0,0,0,.747,0c.2-.013.271.045.269.261-.011,1.117-.005,2.235-.005,3.352Z" transform="translate(-82.575 -272.087)" fill="#879eff"/>
    <path id="Path_209535" data-name="Path 209535" d="M687.032,471.956q3.523,0,7.045,0h17.466l.317,0c-.066.077-.155.038-.232.038-.933,0-1.866.012-2.8,0-.239,0-.3.071-.275.289.017.156,0,.316.005.473.005.115-.029.163-.151.157-.173-.008-.346,0-.519,0a.4.4,0,0,1-.31.105q-.743.008-1.487,0a.4.4,0,0,1-.31-.105,3.889,3.889,0,0,0-.453,0c-.189.021-.227-.06-.219-.229.01-.217.075-.506-.035-.634-.127-.149-.425-.04-.648-.049s-.438,0-.657,0c-.107,0-.148.037-.146.145.005.2,0,.408,0,.612,0,.115-.033.157-.154.159-.163,0-.39-.079-.473.04s-.027.334-.035.507a3.992,3.992,0,0,1-.025.72c-.1-.056-.1-.158-.109-.255-.011-.18,0-.361-.008-.541-.012-.265-.094-.352-.358-.359-.421-.011-.842,0-1.263-.005a.418.418,0,0,1-.353-.109l-.181,0c-.487,0-.487,0-.487-.5,0-.412,0-.412-.416-.412-.286,0-.573.007-.858,0-.154-.006-.212.039-.209.2a3.057,3.057,0,0,1-.019.7c-.121-.069-.1-.192-.112-.3-.026-.258-.1-.334-.356-.336q-1.232-.01-2.465,0c-.26,0-.33.078-.356.336-.011.11.009.232-.112.3a3.392,3.392,0,0,1-.02-.7c0-.137-.029-.2-.187-.2-.377.01-.754.008-1.131,0-.13,0-.163.044-.168.169a2.394,2.394,0,0,1-.034.732c-.1-.06-.1-.16-.109-.258-.034-.32-.1-.385-.429-.387-.82,0-1.641,0-2.462,0-.14,0-.291.023-.4-.11,0-.164-.114-.141-.217-.141q-1.431,0-2.862,0C687.188,471.993,687.1,472.029,687.032,471.956Z" transform="translate(-0.531 -205.51)" fill="#879eff"/>
    <path id="Path_209536" data-name="Path 209536" d="M869.019,476.772c0-.18,0-.361,0-.541,0-.138.053-.211.2-.211q1.5,0,3,0c.146,0,.2.073.2.211,0,.18,0,.361,0,.541-.15.006-.3.022-.449.015s-.2.034-.193.187c.011.316,0,.632.006.948,0,.14-.046.181-.182.18q-.881-.009-1.762,0c-.136,0-.186-.04-.182-.18.008-.316-.005-.633.006-.948.005-.153-.05-.194-.193-.187S869.169,476.778,869.019,476.772Z" transform="translate(-174.269 -209.394)" fill="#879eff"/>
    <path id="Path_209537" data-name="Path 209537" d="M776.6,490.611c0,.377,0,.754,0,1.13,0,.093.01.178-.132.177-.633-.006-1.266,0-1.9-.006-.018,0-.037-.021-.055-.032-.046-.4-.009-.795-.02-1.192,0-.113.064-.16.166-.175a2.967,2.967,0,0,1,.428-.015c.406,0,.813-.006,1.219,0C776.405,490.5,776.529,490.486,776.6,490.611Z" transform="translate(-84.016 -223.214)" fill="#879eff"/>
    <path id="Path_209538" data-name="Path 209538" d="M871.155,723.7a.332.332,0,0,0-.351-.181q-1.41.009-2.82,0a.339.339,0,0,0-.351.182,2,2,0,0,0,.035-.693c0-.157.03-.226.211-.224.456.007.456,0,.456-.46,0-.06,0-.121,0-.181-.01-.116.036-.16.155-.159q.9.006,1.809,0c.117,0,.163.039.158.157-.007.15.009.3,0,.452-.014.165.056.2.208.2.457,0,.454,0,.459.462A.976.976,0,0,0,871.155,723.7Z" transform="translate(-172.946 -444.212)" fill="#879eff"/>
    <path id="Path_209539" data-name="Path 209539" d="M980.1,724.423c-1.032,0-2.064,0-3.1,0a.391.391,0,0,0-.362.133,3.864,3.864,0,0,0,.02-.742c0-.126.04-.176.169-.169.165.009.331,0,.5.005a.443.443,0,0,1,.356-.107c.407,0,.815,0,1.222,0,.312,0,.378-.072.407-.384.01-.1-.013-.218.111-.274a2.2,2.2,0,0,1,.023.583c0,.134.042.181.182.185.481.011.482.017.48.5C980.111,724.243,980.1,724.333,980.1,724.423Z" transform="translate(-277.016 -445.065)" fill="#879eff"/>
    <path id="Path_209540" data-name="Path 209540" d="M763.081,724.555a.263.263,0,0,0-.278-.135c-.956.006-1.912,0-2.868,0a.711.711,0,0,1-.31-.045c0-.06-.01-.12-.009-.18,0-.172-.049-.384.032-.506s.308-.038.47-.044c.118,0,.155-.049.158-.162a2.575,2.575,0,0,1,.023-.606c.132.063.1.19.112.3.028.281.1.355.384.361.415.008.83,0,1.245,0a.443.443,0,0,1,.356.107c.21,0,.476-.087.613.032s.03.4.049.6C763.067,724.376,763.074,724.465,763.081,724.555Z" transform="translate(-69.812 -445.065)" fill="#879eff"/>
    <path id="Path_209541" data-name="Path 209541" d="M762.668,476.774c-.608,0-1.216,0-1.823,0-.194,0-.268.064-.263.261.009.337,0,.675,0,1.013a6.837,6.837,0,0,1-.022-1.052c0-.154-.025-.226-.207-.223-.457.008-.458,0-.456-.451,0-.1.006-.209.01-.314h3.091c.291,0,.3.015.305.307,0,.15,0,.3,0,.451Z" transform="translate(-70.088 -209.376)" fill="#879eff"/>
    <path id="Path_209542" data-name="Path 209542" d="M991.889,492.934c.608,0,1.216,0,1.823,0,.194,0,.268.064.263.261-.009.337,0,.675.005,1.013h0c-.514.047-1.029.012-1.543.018a1.823,1.823,0,0,1-.533-.02Q991.9,493.567,991.889,492.934Z" transform="translate(-291.569 -225.536)" fill="#879eff"/>
    <path id="Path_209543" data-name="Path 209543" d="M1100.713,493.079h2.107q-.009.633-.017,1.265a4.54,4.54,0,0,1-.833.02,10.89,10.89,0,0,1-1.24-.019Z" transform="translate(-395.461 -225.679)" fill="#879eff"/>
    <path id="Path_209544" data-name="Path 209544" d="M777.1,722.831c-.608,0-1.217,0-1.825.007-.214,0-.279-.081-.266-.281.01-.164,0-.33-.005-.5.039-.052.1-.035.146-.035.587,0,1.175,0,1.762,0,.134,0,.188.031.182.175C777.083,722.41,777.1,722.621,777.1,722.831Z" transform="translate(-84.513 -444.247)" fill="#879eff"/>
    <path id="Path_209545" data-name="Path 209545" d="M993.863,722.113c0,.165-.016.331-.005.5.013.2-.053.285-.266.281-.608-.012-1.217-.006-1.825-.007,0-.218.008-.436.01-.655,0-.078,0-.151.111-.15.647,0,1.295.005,1.943.009C993.841,722.085,993.852,722.1,993.863,722.113Z" transform="translate(-291.452 -444.298)" fill="#879eff"/>
    <path id="Path_209546" data-name="Path 209546" d="M1102.672,722.833h-2.122c0-.21.013-.421.009-.631,0-.118.024-.176.161-.175q.891.01,1.782,0c.137,0,.163.056.161.175C1102.659,722.412,1102.668,722.622,1102.672,722.833Z" transform="translate(-395.305 -444.25)" fill="#879eff"/>
    <path id="Path_209547" data-name="Path 209547" d="M992.216,520.988l2.076,0c-.018.011-.036.033-.053.033q-.986,0-1.972,0C992.25,521.023,992.233,521,992.216,520.988Z" transform="translate(-291.882 -252.323)" fill="#879eff"/>
    <path id="Path_209548" data-name="Path 209548" d="M1101.093,521h2.073c-.027.051-.077.039-.12.04h-1.834C1101.17,521.037,1101.12,521.049,1101.093,521Z" transform="translate(-395.824 -252.333)" fill="#879eff"/>
    <path id="Path_209549" data-name="Path 209549" d="M713.974,759.9q0,.677,0,1.354-.024.042-.042,0a.17.17,0,0,0-.011-.039c0-.369,0-.737.008-1.106C713.93,760.04,713.893,759.957,713.974,759.9Z" transform="translate(-26.201 -480.409)" fill="#879eff"/>
    <path id="Path_209550" data-name="Path 209550" d="M914.557,351.92a2.155,2.155,0,1,1-2.164,2.193A2.155,2.155,0,0,1,914.557,351.92Z" transform="translate(-215.676 -90.919)" fill="#fbfafa"/>
    <path id="Path_209551" data-name="Path 209551" d="M779.2,301.428a1.079,1.079,0,0,1-.258-.339c-.073-.124.062-.154.123-.2q2.48-1.864,4.964-3.721c.985-.737,1.973-1.47,2.953-2.213a.257.257,0,0,1,.371,0q3.948,2.963,7.9,5.92c.066.049.189.088.145.2a.637.637,0,0,1-.238.323c-.073.045-.135-.046-.193-.089q-1.679-1.252-3.356-2.507c-1.414-1.058-2.83-2.114-4.237-3.181a.292.292,0,0,0-.425.008q-3.782,2.844-7.572,5.677C779.323,301.343,779.267,301.381,779.2,301.428Z" transform="translate(-88.253 -36.46)" fill="#879eff"/>
    <path id="Path_209552" data-name="Path 209552" d="M862.616,633.64c0-.249,0-.5,0-.746,0-.123.042-.177.172-.169.158.01.317,0,.475,0a.908.908,0,0,1-.007,1.815c-.207,0-.477.094-.6-.043-.1-.107-.03-.372-.034-.567,0-.1,0-.2,0-.294Z" transform="translate(-168.136 -358.995)" fill="#fbfafa"/>
    <path id="Path_209553" data-name="Path 209553" d="M863.117,569.887c0-.211.006-.423,0-.633-.005-.131.029-.194.175-.186.2.011.408,0,.611,0a.815.815,0,0,1,.8.82.8.8,0,0,1-.789.8c-.2.01-.408,0-.611.006-.135.007-.189-.033-.182-.176C863.125,570.31,863.117,570.1,863.117,569.887Z" transform="translate(-168.631 -298.223)" fill="#fbfafa"/>
    <path id="Path_209554" data-name="Path 209554" d="M977.9,590.746c.141.962.278,1.908.422,2.853.026.171-.022.23-.2.218-.2-.013-.407,0-.611,0-.085,0-.144-.011-.125-.126.156-.958.307-1.918.462-2.877C977.851,590.792,977.873,590.777,977.9,590.746Z" transform="translate(-277.721 -318.919)" fill="#fbfafa"/>
    <path id="Path_209555" data-name="Path 209555" d="M885.062,494.245c-.264,0-.527,0-.791,0-.152,0-.221-.057-.218-.213q.008-.418,0-.836c0-.151.058-.22.213-.219q.8.005,1.6,0c.152,0,.221.059.218.214q-.007.418,0,.836c0,.152-.058.221-.214.218C885.6,494.242,885.333,494.245,885.062,494.245Z" transform="translate(-188.621 -225.584)" fill="#879eff"/>
    <path id="Path_209556" data-name="Path 209556" d="M885.071,723.686c-.271,0-.542,0-.813,0-.142,0-.2-.06-.2-.2,0-.663-.051-.558.52-.564.422,0,.843.005,1.265,0,.184,0,.255.063.252.25-.009.585.045.516-.5.52-.173,0-.346,0-.519,0Z" transform="translate(-188.62 -445.099)" fill="#879eff"/>
  </g>
</svg>
