<svg xmlns="http://www.w3.org/2000/svg" width="14.651" height="19.229" viewBox="0 0 14.651 19.229">
  <path id="Path_18239" data-name="Path 18239" d="M16.819,7.41H15.9V5.578a4.578,4.578,0,1,0-9.157,0V7.41H5.831A1.837,1.837,0,0,0,4,9.241V18.4a1.837,1.837,0,0,0,1.831,1.831H16.819A1.837,1.837,0,0,0,18.651,18.4V9.241A1.837,1.837,0,0,0,16.819,7.41Zm-5.494,8.241a1.831,1.831,0,1,1,1.831-1.831A1.837,1.837,0,0,1,11.325,15.651ZM14.164,7.41H8.487V5.578a2.839,2.839,0,0,1,5.677,0Z" transform="translate(-4 -1)" fill="#879eff"/>
</svg>
