<svg xmlns="http://www.w3.org/2000/svg" width="18.349" height="23.24" viewBox="0 0 18.349 23.24">
  <path id="Exclusion_36" data-name="Exclusion 36" d="M9.175,23.24a1.554,1.554,0,0,1-1.2-.552C5.58,19.832,0,12.776,0,8.938A9.069,9.069,0,0,1,9.175,0a9.068,9.068,0,0,1,9.174,8.938c0,3.828-5.578,10.891-7.977,13.75A1.561,1.561,0,0,1,9.175,23.24Zm0-18.611a4.7,4.7,0,0,0-3.3,1.332,4.459,4.459,0,0,0,0,6.428,4.751,4.751,0,0,0,6.6,0,4.464,4.464,0,0,0,0-6.428A4.7,4.7,0,0,0,9.175,4.629Z" fill="#879eff"/>
</svg>
