<svg xmlns="http://www.w3.org/2000/svg" width="36.909" height="33.218" viewBox="0 0 36.909 33.218">
  <path id="Path_209339" data-name="Path 209339" d="M2,14.062A11.054,11.054,0,0,1,13.073,3H27.836A11.081,11.081,0,0,1,38.909,14.062V36.218H13.073A11.081,11.081,0,0,1,2,25.156ZM35.218,32.527V14.062a7.389,7.389,0,0,0-7.382-7.371H13.073a7.363,7.363,0,0,0-7.382,7.371V25.156a7.389,7.389,0,0,0,7.382,7.371ZM24.145,17.763h3.691v3.691H24.145Zm-11.073,0h3.691v3.691H13.073Z" transform="translate(-2 -3)" fill="#f6f6f6"/>
</svg>
