<svg id="money-svgrepo-com" xmlns="http://www.w3.org/2000/svg" width="30.125" height="15.029" viewBox="0 0 30.125 15.029">
  <path id="Path_208975" data-name="Path 208975" d="M0,135.32V124.5a2.105,2.105,0,0,1,2.1-2.1H22.157a2.105,2.105,0,0,1,2.1,2.1v.635H22.867a1.315,1.315,0,0,0-1.314,1.314v.352a2.125,2.125,0,0,1-1.739-2.091,2.381,2.381,0,0,1,.062-.518H4.261a2.072,2.072,0,0,1,.037.389,2.128,2.128,0,0,1-2.128,2.128,2.511,2.511,0,0,1-.376-.031v6.463a2.513,2.513,0,0,1,.376-.031A2.124,2.124,0,0,1,4.3,135.239a1.978,1.978,0,0,1-.037.389H17.335l-.006.765v.826c0,.068.012.142.019.21H2.1A2.115,2.115,0,0,1,0,135.32Zm25.648.863H22.86a.208.208,0,0,0-.21.21v.826a.208.208,0,0,0,.21.21h2.787a.208.208,0,0,0,.21-.21v-.833A.207.207,0,0,0,25.648,136.183Zm0-1.659H22.86a.208.208,0,0,0-.21.21v.826a.208.208,0,0,0,.21.21h2.787a.208.208,0,0,0,.21-.21v-.826A.208.208,0,0,0,25.648,134.524Zm0-1.653H22.86a.208.208,0,0,0-.21.21v.826a.208.208,0,0,0,.21.21h2.787a.208.208,0,0,0,.21-.21v-.826A.208.208,0,0,0,25.648,132.871Zm0-1.659H22.86a.208.208,0,0,0-.21.21v.826a.208.208,0,0,0,.21.21h2.787a.208.208,0,0,0,.21-.21v-.826A.208.208,0,0,0,25.648,131.212Zm0-1.653H22.86a.208.208,0,0,0-.21.21v.82a.208.208,0,0,0,.21.21h2.787a.208.208,0,0,0,.21-.21v-.826A.207.207,0,0,0,25.648,129.56Zm0-1.659H22.86a.208.208,0,0,0-.21.21v.826a.207.207,0,0,0,.2.21h2.787a.208.208,0,0,0,.21-.21v-.826A.2.2,0,0,0,25.648,127.9Zm0-1.653H22.86a.208.208,0,0,0-.21.21v.826a.208.208,0,0,0,.21.21h2.787a.208.208,0,0,0,.21-.21v-.826A.208.208,0,0,0,25.648,126.248Zm4.267,9.935H27.128a.208.208,0,0,0-.21.21v.826a.208.208,0,0,0,.21.21h2.787a.208.208,0,0,0,.21-.21v-.833A.215.215,0,0,0,29.915,136.183Zm0-1.659H27.128a.208.208,0,0,0-.21.21v.826a.208.208,0,0,0,.21.21h2.787a.208.208,0,0,0,.21-.21v-.826A.216.216,0,0,0,29.915,134.524Zm0-1.653H27.128a.208.208,0,0,0-.21.21v.826a.208.208,0,0,0,.21.21h2.787a.208.208,0,0,0,.21-.21v-.826A.216.216,0,0,0,29.915,132.871Zm-8.529,3.312H18.6a.208.208,0,0,0-.21.21v.826a.208.208,0,0,0,.21.21h2.787a.208.208,0,0,0,.21-.21v-.833A.207.207,0,0,0,21.387,136.183Zm.21-1.449a.208.208,0,0,0-.21-.21H18.6a.208.208,0,0,0-.21.21v.826a.208.208,0,0,0,.21.21h2.787a.208.208,0,0,0,.21-.21Zm0-1.653a.208.208,0,0,0-.21-.21H18.6a.208.208,0,0,0-.21.21v.826a.208.208,0,0,0,.21.21h2.787a.208.208,0,0,0,.21-.21Zm0-1.659a.208.208,0,0,0-.21-.21H18.6a.208.208,0,0,0-.21.21v.826a.208.208,0,0,0,.21.21h2.787a.208.208,0,0,0,.21-.21Zm0-1.659a.208.208,0,0,0-.21-.21H18.6a.208.208,0,0,0-.21.21v.826a.208.208,0,0,0,.21.21h2.787a.208.208,0,0,0,.21-.21ZM12.13,125.3a4.607,4.607,0,1,1-4.607,4.607A4.607,4.607,0,0,1,12.13,125.3Zm.4,1.184h-.524a.14.14,0,0,0-.142.142v.629a1.7,1.7,0,0,0-.974.444,1.348,1.348,0,0,0-.413,1.005,1.284,1.284,0,0,0,.389,1.018,4.165,4.165,0,0,0,1.233.685,1.352,1.352,0,0,1,.487.308.642.642,0,0,1,.136.438.559.559,0,0,1-.136.395.506.506,0,0,1-.395.154.693.693,0,0,1-.506-.2.772.772,0,0,1-.185-.493.168.168,0,0,0-.173-.148l-.863.018a.167.167,0,0,0-.167.173,1.492,1.492,0,0,0,.444,1.061,1.906,1.906,0,0,0,1.11.481v.592a.143.143,0,0,0,.142.142h.524a.143.143,0,0,0,.142-.142v-.6a1.672,1.672,0,0,0,.87-.419,1.329,1.329,0,0,0,.395-1.005,1.279,1.279,0,0,0-.395-1.011,4.467,4.467,0,0,0-1.227-.709,1.414,1.414,0,0,1-.493-.314.614.614,0,0,1-.13-.4.647.647,0,0,1,.123-.4.45.45,0,0,1,.376-.16.477.477,0,0,1,.4.191.835.835,0,0,1,.148.438.168.168,0,0,0,.173.148l.863-.012a.167.167,0,0,0,.167-.173,1.565,1.565,0,0,0-.364-.95,1.587,1.587,0,0,0-.907-.512v-.654A.125.125,0,0,0,12.531,126.489Zm-8.375,3.423a1.277,1.277,0,1,0,1.277-1.277A1.279,1.279,0,0,0,4.156,129.911Z" transform="translate(0 -122.4)" fill="#caced5"/>
</svg>
