<svg xmlns="http://www.w3.org/2000/svg" width="23.884" height="21.648" viewBox="0 0 23.884 21.648">
  <g id="Group_96253" data-name="Group 96253" transform="translate(0)">
    <path id="Union_24" data-name="Union 24" d="M6.949,21.162l-3.5-2.895h9.823l-3.5,2.895a2.306,2.306,0,0,1-2.83,0Zm5.269-.118,3.346-2.772h3.672v1.115a1.856,1.856,0,0,1-2,1.657ZM2.069,17A1.921,1.921,0,0,1,0,15.289V6.475A1.922,1.922,0,0,1,2.069,4.762H21.807a1.929,1.929,0,0,1,2.077,1.713v8.814A1.922,1.922,0,0,1,21.812,17Zm2.159-1.775a1.524,1.524,0,0,1-.037.32H19.515a1.4,1.4,0,0,1-.015-.219A1.94,1.94,0,0,1,21.594,13.6a2.552,2.552,0,0,1,.52.053V8.333a2.472,2.472,0,0,1-.52.053A1.937,1.937,0,0,1,19.5,6.652a1.378,1.378,0,0,1,.062-.424H4.191a1.141,1.141,0,0,1,.037.318,1.941,1.941,0,0,1-2.1,1.735,2.481,2.481,0,0,1-.368-.027v5.267a2.411,2.411,0,0,1,.368-.027A1.941,1.941,0,0,1,4.228,15.228ZM6.7,10.893c0-2.431,2.425-4.406,5.411-4.406s5.412,1.975,5.412,4.406S15.1,15.3,12.111,15.3,6.7,13.324,6.7,10.893Zm3.675,1.315c-.057.14-.1.285-.153.431-.063.2-.045.244.185.332a3.916,3.916,0,0,0,.919.213c.249.03.261.042.261.249.006.093.006.192.006.285,0,.119.071.192.224.192.173.005.344.005.517,0,.14-.005.21-.068.21-.182,0-.13.006-.259,0-.389s.057-.2.217-.234a1.851,1.851,0,0,0,.9-.474,1.2,1.2,0,0,0-.522-2.01c-.294-.13-.6-.229-.906-.332a2.2,2.2,0,0,1-.5-.229c-.293-.192-.236-.5.109-.629a.979.979,0,0,1,.306-.053,2.757,2.757,0,0,1,1.143.187c.178.073.236.047.3-.1s.122-.327.179-.488c.045-.109-.006-.182-.134-.229a3.322,3.322,0,0,0-.721-.176c-.332-.042-.332-.042-.332-.312,0-.38,0-.38-.466-.38h-.2c-.216.005-.255.036-.261.213v.24c0,.239,0,.234-.281.317-.676.2-1.092.576-1.136,1.174-.039.529.3.888.837,1.148a9.649,9.649,0,0,0,1.04.38,1.523,1.523,0,0,1,.383.181c.338.224.275.6-.121.743a1.465,1.465,0,0,1-.67.073,3.53,3.53,0,0,1-1.021-.249.44.44,0,0,0-.158-.044C10.454,12.055,10.415,12.1,10.375,12.208Zm8.105-1.091A1.382,1.382,0,0,1,19.98,9.9a1.382,1.382,0,0,1,1.5,1.222,1.382,1.382,0,0,1-1.5,1.221A1.382,1.382,0,0,1,18.48,11.117Zm-15.744,0A1.382,1.382,0,0,1,4.235,9.9a1.382,1.382,0,0,1,1.5,1.222,1.382,1.382,0,0,1-1.5,1.221A1.382,1.382,0,0,1,2.736,11.117Zm7.48-7.62,3.62-3a2.388,2.388,0,0,1,2.926,0l3.617,3Zm-5.763,0V2.4A1.923,1.923,0,0,1,6.528.691h5.192L8.325,3.5Z" transform="translate(0)" fill="#f6f6f6"/>
  </g>
</svg>
