<svg xmlns="http://www.w3.org/2000/svg" width="18.331" height="18.331" viewBox="0 0 18.331 18.331">
  <path id="Path_199802" data-name="Path 199802" d="M17.312,12.73a11.569,11.569,0,0,1-3.636-.58,1.039,1.039,0,0,0-1.039.244l-2.24,2.24a15.351,15.351,0,0,1-6.711-6.7l2.24-2.251a1,1,0,0,0,.255-1.029A11.569,11.569,0,0,1,5.6,1.018,1.021,1.021,0,0,0,4.583,0H1.018A1.021,1.021,0,0,0,0,1.018,17.311,17.311,0,0,0,17.312,18.331a1.021,1.021,0,0,0,1.018-1.018V13.748A1.021,1.021,0,0,0,17.312,12.73Z" fill="#879eff"/>
</svg>
