<svg xmlns="http://www.w3.org/2000/svg" width="16.583" height="16.608" viewBox="0 0 16.583 16.608">
  <path id="Exclusion_3" data-name="Exclusion 3" d="M15.435,16.608a.342.342,0,0,1,0-.684.342.342,0,1,1,.342-.342.343.343,0,0,1-.342.342.342.342,0,1,1,0,.684Zm-1.367,0a.342.342,0,1,1,.342-.342A.342.342,0,0,1,14.068,16.608Zm-.683,0a.342.342,0,1,1,0-.684.342.342,0,1,1,0-.683.342.342,0,1,1,.341-.342.343.343,0,0,1-.341.342.342.342,0,0,1,0,.683.342.342,0,0,1,0,.684Zm-.684,0a.342.342,0,1,1,0-.684.342.342,0,1,1,.342-.342.343.343,0,0,1-.342.342.342.342,0,1,1,0,.684Zm-1.367,0a.342.342,0,1,1,.341-.342A.342.342,0,0,1,11.334,16.608Zm-.684,0a.342.342,0,0,1,0-.684.342.342,0,1,1,.342-.342.343.343,0,0,1-.342.342.342.342,0,1,1,0,.684Zm-1.367,0a.342.342,0,1,1,.342-.342A.342.342,0,0,1,9.283,16.608Zm-1.367,0a.342.342,0,1,1,0-.684.342.342,0,1,1,.342-.342.343.343,0,0,1-.342.342.342.342,0,0,1,0,.684Zm-1.368,0a.342.342,0,0,1,0-.684.342.342,0,0,1,0-.683.342.342,0,0,1,0-.684.342.342,0,0,1,0-.683.342.342,0,0,1,0-.683.342.342,0,0,1,0-.684.342.342,0,0,1,0-.684.342.342,0,0,1,0-.683.342.342,0,1,1,.342-.342.343.343,0,0,1-.342.342.342.342,0,1,1,0,.683.342.342,0,0,1,0,.684.342.342,0,0,1,0,.684.342.342,0,1,1,0,.683.342.342,0,1,1,0,.683.342.342,0,0,1,0,.684.342.342,0,1,1,0,.683.342.342,0,0,1,0,.684Zm-.683,0a.342.342,0,1,1,.342-.342A.342.342,0,0,1,5.864,16.608Zm-.684,0a.342.342,0,1,1,0-.684.342.342,0,1,1,.342-.342.343.343,0,0,1-.342.342.342.342,0,0,1,0,.684ZM3.353,16.5H.838A.839.839,0,0,1,0,15.658V13.143A.839.839,0,0,1,.838,12.3H3.353a.839.839,0,0,1,.839.838v2.516A.839.839,0,0,1,3.353,16.5ZM.834,13.041a.106.106,0,0,0-.1.107v2.508a.1.1,0,0,0,.1.1H3.344a.1.1,0,0,0,.1-.1V13.148a.1.1,0,0,0-.1-.107Zm13.917,2.883a.342.342,0,0,1,0-.683.342.342,0,1,1,.343-.342.343.343,0,0,1-.343.342.342.342,0,1,1,0,.683Zm-2.734,0a.342.342,0,1,1,0-.683.342.342,0,1,1,.342-.342.343.343,0,0,1-.342.342.342.342,0,1,1,0,.683Zm-2.051,0a.342.342,0,0,1,0-.683.342.342,0,1,1,.342-.342.343.343,0,0,1-.342.342.342.342,0,1,1,0,.683Zm-1.367,0a.342.342,0,0,1,0-.683.342.342,0,0,1,0-.684.342.342,0,0,1,0-.683.342.342,0,1,1,.342-.342.343.343,0,0,1-.342.342.342.342,0,1,1,0,.683.342.342,0,0,1,0,.684.342.342,0,1,1,0,.683Zm-1.367,0a.342.342,0,1,1,.342-.342A.342.342,0,0,1,7.232,15.924Zm8.887-.683a.342.342,0,0,1,0-.684.342.342,0,1,1,.342-.341.343.343,0,0,1-.342.341.342.342,0,1,1,0,.684Zm-4.785,0a.342.342,0,1,1,.341-.342A.342.342,0,0,1,11.334,15.241Zm-2.051,0a.342.342,0,1,1,0-.684.342.342,0,1,1,0-.683.342.342,0,1,1,0-.683.342.342,0,1,1,.342-.342.343.343,0,0,1-.342.342.342.342,0,1,1,0,.683.342.342,0,1,1,0,.683.342.342,0,0,1,0,.684Zm-3.418,0a.342.342,0,1,1,0-.684.342.342,0,1,1,.342-.341.343.343,0,0,1-.342.341.342.342,0,0,1,0,.684Zm-2.973-.028H1.283V13.587H2.892v1.624Zm12.543-.656a.342.342,0,0,1,0-.683.342.342,0,0,1,0-.683.342.342,0,1,1,.342-.342.343.343,0,0,1-.342.342.342.342,0,1,1,0,.683.342.342,0,1,1,0,.683Zm-3.76,0a.342.342,0,1,1,.342-.342A.342.342,0,0,1,11.675,14.557Zm-1.025,0a.342.342,0,1,1,0-.683.342.342,0,1,1,.342-.342.343.343,0,0,1-.342.342.342.342,0,1,1,0,.683Zm-5.469,0a.342.342,0,1,1,0-.683.342.342,0,1,1,0-.683.342.342,0,1,1,.342-.342.343.343,0,0,1-.342.342.342.342,0,1,1,0,.683.342.342,0,1,1,0,.683ZM12.7,14.5a.342.342,0,1,1,.342-.342A.342.342,0,0,1,12.7,14.5Zm1.367-.288a.342.342,0,1,1,.342-.342A.342.342,0,0,1,14.068,14.215Zm-6.836-.342a.342.342,0,1,1,.342-.342A.342.342,0,0,1,7.232,13.873Zm4.443-.427a.342.342,0,1,1,.342-.342A.342.342,0,0,1,11.675,13.447Zm4.444-.257a.342.342,0,0,1,0-.684.342.342,0,1,1,.342-.342.343.343,0,0,1-.342.342.342.342,0,1,1,0,.684Zm-1.368,0a.342.342,0,0,1,0-.684.342.342,0,1,1,.343-.342.343.343,0,0,1-.343.342.342.342,0,1,1,0,.684Zm-2.05,0a.342.342,0,1,1,.342-.342A.342.342,0,0,1,12.7,13.19Zm-2.735,0a.342.342,0,0,1,0-.684.342.342,0,1,1,.342-.342.343.343,0,0,1-.342.342.342.342,0,1,1,0,.684Zm-2.05,0a.342.342,0,1,1,0-.684.342.342,0,1,1,.342-.342.343.343,0,0,1-.342.342.342.342,0,0,1,0,.684Zm5.81-.214a.342.342,0,1,1,.342-.341A.341.341,0,0,1,13.726,12.976Zm-3.076-.47a.342.342,0,0,1,0-.684.342.342,0,1,1,.342-.341.343.343,0,0,1-.342.341.342.342,0,1,1,0,.684Zm-2.051,0a.342.342,0,0,1,0-.684.342.342,0,0,1,0-.683.342.342,0,0,1,0-.684.342.342,0,1,1,.342-.341.342.342,0,0,1-.342.341.342.342,0,0,1,0,.684.342.342,0,1,1,0,.683.342.342,0,0,1,0,.684Zm-1.367,0a.342.342,0,1,1,0-.684.342.342,0,1,1,0-.683.342.342,0,1,1,0-.684.342.342,0,1,1,.342-.341.343.343,0,0,1-.342.341.342.342,0,0,1,0,.684.342.342,0,1,1,0,.683.342.342,0,0,1,0,.684Zm-1.367,0a.342.342,0,1,1,.342-.342A.342.342,0,0,1,5.864,12.506Zm6.152-.213a.342.342,0,1,1,.342-.342A.342.342,0,0,1,12.017,12.293Zm1.709-.342a.342.342,0,1,1,.342-.342A.342.342,0,0,1,13.726,11.951Zm1.709-.129a.342.342,0,1,1,.342-.341A.341.341,0,0,1,15.435,11.822Zm-10.255,0a.342.342,0,1,1,.342-.341A.342.342,0,0,1,5.18,11.822Zm-.684,0a.342.342,0,0,1,0-.683.342.342,0,0,1,0-.684.342.342,0,1,1,.342-.341.342.342,0,0,1-.342.341.342.342,0,0,1,0,.684.342.342,0,1,1,0,.683Zm-1.367,0a.342.342,0,0,1,0-.683.342.342,0,0,1,0-.684.342.342,0,1,1,.342-.341.342.342,0,0,1-.342.341.342.342,0,0,1,0,.684.342.342,0,1,1,0,.683Zm-1.367,0a.342.342,0,1,1,0-.683.342.342,0,0,1,0-.684.342.342,0,1,1,0-.683.342.342,0,1,1,0-.683A.342.342,0,1,1,2.1,8.747a.343.343,0,0,1-.342.342.342.342,0,1,1,0,.683.342.342,0,1,1,0,.683.342.342,0,1,1,0,.684.342.342,0,1,1,0,.683Zm-.683,0a.342.342,0,1,1,.341-.341A.342.342,0,0,1,1.079,11.822Zm-.684,0a.342.342,0,1,1,0-.683.342.342,0,0,1,0-.684.342.342,0,1,1,.342-.341.343.343,0,0,1-.342.341.342.342,0,1,1,0,.684.342.342,0,1,1,0,.683Zm15.724-.683a.342.342,0,0,1,0-.684.342.342,0,1,1,0-.683.342.342,0,1,1,.342-.342.343.343,0,0,1-.342.342.342.342,0,1,1,0,.683.342.342,0,1,1,0,.684Zm-1.368,0a.342.342,0,1,1,.343-.342A.342.342,0,0,1,14.751,11.139Zm-.683,0a.342.342,0,1,1,0-.684.342.342,0,1,1,.342-.341.343.343,0,0,1-.342.341.342.342,0,1,1,0,.684Zm-1.367,0a.342.342,0,0,1,0-.684.342.342,0,1,1,0-.683.342.342,0,1,1,.342-.342.343.343,0,0,1-.342.342.342.342,0,1,1,0,.683.342.342,0,1,1,0,.684Zm-.684,0a.342.342,0,1,1,.342-.342A.342.342,0,0,1,12.017,11.139Zm-2.051,0a.342.342,0,0,1,0-.684.342.342,0,0,1,0-.683.342.342,0,0,1,0-.683.342.342,0,0,1,0-.684.342.342,0,1,1,.342-.341.342.342,0,0,1-.342.341.342.342,0,1,1,0,.684.342.342,0,1,1,0,.683.342.342,0,1,1,0,.683.342.342,0,1,1,0,.684Zm-4.1,0a.342.342,0,1,1,.342-.342A.342.342,0,0,1,5.864,11.139Zm4.785-.684a.342.342,0,1,1,.342-.341A.342.342,0,0,1,10.65,10.455Zm-5.469,0a.342.342,0,1,1,0-.683.342.342,0,1,1,.342-.342.343.343,0,0,1-.342.342.342.342,0,1,1,0,.683Zm-1.367,0a.342.342,0,1,1,0-.683.342.342,0,1,1,0-.683.342.342,0,1,1,0-.684.342.342,0,1,1,0-.683.342.342,0,1,1,.342-.342.343.343,0,0,1-.342.342.342.342,0,1,1,0,.683.342.342,0,0,1,0,.684.342.342,0,1,1,0,.683.342.342,0,1,1,0,.683Zm-1.367,0a.342.342,0,1,1,.342-.341A.342.342,0,0,1,2.446,10.455Zm12.989-.683a.342.342,0,0,1,0-.683.342.342,0,1,1,.342-.342.343.343,0,0,1-.342.342.342.342,0,1,1,0,.683Zm-.684,0a.342.342,0,1,1,.343-.342A.342.342,0,0,1,14.751,9.772Zm-1.366,0a.342.342,0,1,1,.341-.342A.342.342,0,0,1,13.385,9.772Zm-1.368,0a.342.342,0,1,1,0-.683.342.342,0,1,1,.342-.342.343.343,0,0,1-.342.342.342.342,0,1,1,0,.683Zm-2.734,0a.342.342,0,1,1,0-.683.342.342,0,1,1,0-.684.342.342,0,1,1,0-.683.342.342,0,1,1,0-.684A.342.342,0,1,1,9.625,6.7a.343.343,0,0,1-.342.342.342.342,0,0,1,0,.684.342.342,0,1,1,0,.683.342.342,0,0,1,0,.684.342.342,0,1,1,0,.683Zm-1.367,0a.342.342,0,1,1,0-.683.342.342,0,1,1,.342-.342.343.343,0,0,1-.342.342.342.342,0,1,1,0,.683Zm-2.051,0a.342.342,0,1,1,0-.683.342.342,0,1,1,0-.684.342.342,0,1,1,0-.683.342.342,0,1,1,.342-.342.343.343,0,0,1-.342.342.342.342,0,1,1,0,.683.342.342,0,0,1,0,.684.342.342,0,1,1,0,.683Zm-4.785,0a.342.342,0,1,1,0-.683.342.342,0,0,1,0-.684.342.342,0,1,1,0-.683A.342.342,0,1,1,1.42,7.38a.343.343,0,0,1-.341.342.342.342,0,0,1,0,.683.342.342,0,0,1,0,.684.342.342,0,0,1,0,.683Zm12.989-.683a.342.342,0,0,1,0-.684.342.342,0,1,1,.342-.341.343.343,0,0,1-.342.341.342.342,0,0,1,0,.684Zm-2.734,0a.342.342,0,0,1,0-.684.342.342,0,1,1,0-.683.342.342,0,1,1,.341-.342.343.343,0,0,1-.341.342.342.342,0,0,1,0,.683.342.342,0,0,1,0,.684Zm-4.1,0a.342.342,0,1,1,.342-.342A.342.342,0,0,1,7.232,9.089Zm-.684,0a.342.342,0,1,1,.342-.342A.342.342,0,0,1,6.548,9.089Zm-2.051,0a.342.342,0,1,1,.342-.342A.342.342,0,0,1,4.5,9.089Zm-1.367,0a.342.342,0,1,1,.342-.342A.342.342,0,0,1,3.129,9.089Zm-.683,0a.342.342,0,0,1,0-.684.342.342,0,1,1,0-.683.342.342,0,1,1,.342-.342.343.343,0,0,1-.342.342.342.342,0,1,1,0,.683.342.342,0,1,1,0,.684ZM.4,9.089a.342.342,0,0,1,0-.684.342.342,0,1,1,.342-.341A.343.343,0,0,1,.4,8.405a.342.342,0,1,1,0,.684Zm15.724-.684a.342.342,0,1,1,0-.683.342.342,0,0,1,0-.684.342.342,0,1,1,0-.683.342.342,0,1,1,.342-.342.343.343,0,0,1-.342.342.342.342,0,1,1,0,.683.342.342,0,1,1,0,.684.342.342,0,1,1,0,.683Zm-1.368,0a.342.342,0,0,1,0-.683.342.342,0,1,1,.343-.342.343.343,0,0,1-.343.342.342.342,0,1,1,0,.683Zm-1.366,0a.342.342,0,1,1,0-.683.342.342,0,0,1,0-.684.342.342,0,1,1,.341-.342.343.343,0,0,1-.341.342.342.342,0,0,1,0,.684.342.342,0,0,1,0,.683Zm-.684,0a.342.342,0,1,1,.342-.341A.342.342,0,0,1,12.7,8.405Zm-7.52,0a.342.342,0,1,1,0-.683.342.342,0,1,1,0-.684.342.342,0,1,1,0-.683.342.342,0,1,1,0-.684.342.342,0,1,1,0-.683.342.342,0,1,1,0-.684.342.342,0,1,1,0-.683.342.342,0,1,1,.342-.342.343.343,0,0,1-.342.342.342.342,0,1,1,0,.683.342.342,0,0,1,0,.684.342.342,0,1,1,0,.683.342.342,0,0,1,0,.684.342.342,0,1,1,0,.683.342.342,0,0,1,0,.684.342.342,0,1,1,0,.683Zm6.836-.683a.342.342,0,0,1,0-.684.342.342,0,1,1,0-.683.342.342,0,0,1,0-.684.342.342,0,1,1,.342-.341.343.343,0,0,1-.342.341.342.342,0,1,1,0,.684.342.342,0,1,1,0,.683.342.342,0,1,1,0,.684Zm-3.418,0a.342.342,0,0,1,0-.684.342.342,0,0,1,0-.683.342.342,0,0,1,0-.684.342.342,0,1,1,.342-.341.342.342,0,0,1-.342.341.342.342,0,0,1,0,.684.342.342,0,1,1,0,.683.342.342,0,0,1,0,.684Zm-1.367,0a.342.342,0,1,1,.342-.342A.342.342,0,0,1,7.232,7.722Zm-.684,0a.342.342,0,0,1,0-.684A.342.342,0,1,1,6.889,6.7a.343.343,0,0,1-.342.342.342.342,0,0,1,0,.684Zm-2.051,0a.342.342,0,0,1,0-.684.342.342,0,0,1,0-.683.342.342,0,1,1,.342-.342.343.343,0,0,1-.342.342.342.342,0,1,1,0,.683.342.342,0,0,1,0,.684Zm-1.367,0a.342.342,0,1,1,.342-.342A.342.342,0,0,1,3.129,7.722Zm-1.367,0a.342.342,0,0,1,0-.684A.342.342,0,1,1,2.1,6.7a.343.343,0,0,1-.342.342.342.342,0,1,1,0,.684Zm12.306-.684a.342.342,0,1,1,0-.683.342.342,0,0,1,0-.684.342.342,0,1,1,.342-.341.343.343,0,0,1-.342.341.342.342,0,0,1,0,.684.342.342,0,1,1,0,.683Zm-1.367,0a.342.342,0,1,1,.342-.342A.342.342,0,0,1,12.7,7.038Zm-2.051,0a.342.342,0,1,1,.342-.342A.342.342,0,0,1,10.65,7.038Zm-.684,0a.342.342,0,0,1,0-.683.342.342,0,0,1,0-.684.342.342,0,0,1,0-.683.342.342,0,1,1,.342-.342.343.343,0,0,1-.342.342.342.342,0,1,1,0,.683.342.342,0,1,1,0,.684.342.342,0,1,1,0,.683ZM.4,7.038a.342.342,0,1,1,0-.683.342.342,0,1,1,.342-.342A.343.343,0,0,1,.4,6.355a.342.342,0,1,1,0,.683Zm14.356-.683a.342.342,0,1,1,.343-.342A.342.342,0,0,1,14.751,6.355Zm-3.417,0a.342.342,0,0,1,0-.684.342.342,0,1,1,0-.683.342.342,0,1,1,.341-.342.343.343,0,0,1-.341.342.342.342,0,0,1,0,.683.342.342,0,0,1,0,.684Zm-3.418,0a.342.342,0,1,1,0-.684.342.342,0,1,1,0-.683.342.342,0,1,1,0-.684.342.342,0,1,1,.342-.341.343.343,0,0,1-.342.341.342.342,0,0,1,0,.684.342.342,0,1,1,0,.683.342.342,0,0,1,0,.684Zm-.684,0a.342.342,0,1,1,.342-.342A.342.342,0,0,1,7.232,6.355Zm-1.367,0a.342.342,0,1,1,0-.684.342.342,0,1,1,.342-.341.343.343,0,0,1-.342.341.342.342,0,0,1,0,.684Zm-2.051,0a.342.342,0,1,1,0-.684.342.342,0,1,1,.342-.341.343.343,0,0,1-.342.341.342.342,0,0,1,0,.684Zm-1.367,0a.342.342,0,0,1,0-.684.342.342,0,1,1,.342-.341.343.343,0,0,1-.342.341.342.342,0,1,1,0,.684Zm-1.367,0a.342.342,0,0,1,0-.684A.342.342,0,1,1,1.42,5.33a.343.343,0,0,1-.341.341.342.342,0,0,1,0,.684Zm14.356-.684a.342.342,0,1,1,.342-.341A.341.341,0,0,1,15.435,5.671Zm-2.05,0a.342.342,0,1,1,.341-.341A.342.342,0,0,1,13.385,5.671Zm-4.1,0a.342.342,0,1,1,.342-.341A.342.342,0,0,1,9.283,5.671Zm-2.735,0a.342.342,0,0,1,0-.683.342.342,0,1,1,.342-.342.343.343,0,0,1-.342.342.342.342,0,1,1,0,.683Zm-3.418,0a.342.342,0,1,1,.342-.341A.341.341,0,0,1,3.129,5.671Zm-1.367,0A.342.342,0,1,1,2.1,5.33.342.342,0,0,1,1.762,5.671Zm8.888-.683a.342.342,0,0,1,0-.684.342.342,0,1,1,.342-.341.343.343,0,0,1-.342.341.342.342,0,1,1,0,.684Zm-3.418,0a.342.342,0,1,1,.342-.342A.342.342,0,0,1,7.232,4.988ZM9.283,4.3a.342.342,0,1,1,.342-.341A.342.342,0,0,1,9.283,4.3ZM8.6,4.3a.342.342,0,0,1,0-.683.343.343,0,0,1-.341-.342.338.338,0,0,1,.333-.341A.342.342,0,0,1,8.6,2.254a.342.342,0,1,1,.342-.341.342.342,0,0,1-.342.341.342.342,0,0,1,.008.684.342.342,0,0,1-.008.683.342.342,0,1,1,0,.683Zm-2.734,0a.342.342,0,1,1,0-.683.342.342,0,1,1,.342-.342.343.343,0,0,1-.342.342.342.342,0,1,1,0,.683Zm9.88-.1H13.228a.839.839,0,0,1-.838-.839V.847a.839.839,0,0,1,.838-.838h2.516a.839.839,0,0,1,.838.838V3.362A.839.839,0,0,1,15.745,4.2ZM13.226.744a.1.1,0,0,0-.1.1v2.5a.1.1,0,0,0,.1.1h2.5a.1.1,0,0,0,.1-.1V.844a.1.1,0,0,0-.1-.1ZM3.353,4.191H.838A.839.839,0,0,1,0,3.353V.838A.839.839,0,0,1,.838,0H3.353a.839.839,0,0,1,.839.838V3.353A.839.839,0,0,1,3.353,4.191ZM.835.735a.1.1,0,0,0-.1.1v2.5a.1.1,0,0,0,.1.1h2.5a.1.1,0,0,0,.1-.1V.835a.1.1,0,0,0-.1-.1Zm10.5,2.885a.342.342,0,1,1,.341-.342A.342.342,0,0,1,11.334,3.621Zm-1.368,0a.342.342,0,0,1-.007-.683.342.342,0,0,1,.007-.684.342.342,0,0,1,0-.684.342.342,0,0,1,0-.683.342.342,0,1,1,.342-.342.343.343,0,0,1-.342.342.342.342,0,1,1,0,.683.342.342,0,1,1,0,.684.342.342,0,0,1,.008.684.342.342,0,0,1-.008.683Zm-2.734,0a.342.342,0,0,1-.008-.683.342.342,0,0,1,.008-.684.342.342,0,1,1,0-.684.342.342,0,1,1,.342-.341.343.343,0,0,1-.342.341.342.342,0,1,1,0,.684.342.342,0,0,1,.008.684.342.342,0,0,1-.008.683Zm-.684,0a.342.342,0,1,1,.342-.342A.342.342,0,0,1,6.548,3.621Zm4.1-.683a.342.342,0,0,1,0-.684.342.342,0,1,1,0-.684.342.342,0,1,1,.342-.341.343.343,0,0,1-.342.341.342.342,0,1,1,0,.684.342.342,0,1,1,0,.684Zm-1.367,0A.342.342,0,1,1,9.625,2.6.342.342,0,0,1,9.283,2.938Zm-1.367,0a.342.342,0,1,1,0-.684.342.342,0,1,1,.342-.341.343.343,0,0,1-.342.341.342.342,0,0,1,0,.684ZM15.3,2.9H13.674V1.292H15.3V2.9ZM2.892,2.891H1.283V1.283H2.892V2.89Zm8.442-.637a.342.342,0,1,1,.341-.341A.342.342,0,0,1,11.334,2.254Zm-4.786,0a.342.342,0,0,1,0-.684.342.342,0,0,1,0-.683A.342.342,0,1,1,6.889.545a.343.343,0,0,1-.342.342.342.342,0,1,1,0,.683.342.342,0,1,1,0,.684Zm-.683,0a.342.342,0,1,1,0-.684.342.342,0,1,1,.342-.341.343.343,0,0,1-.342.341.342.342,0,1,1,0,.684Zm-.684,0a.342.342,0,1,1,0-.684.342.342,0,1,1,0-.683A.342.342,0,1,1,5.522.545.343.343,0,0,1,5.18.887a.342.342,0,1,1,0,.683.342.342,0,1,1,0,.684ZM11.334.887a.342.342,0,1,1,.341-.342A.342.342,0,0,1,11.334.887Zm-2.051,0A.342.342,0,1,1,9.625.545.342.342,0,0,1,9.283.887ZM8.6.887A.342.342,0,1,1,8.941.545.342.342,0,0,1,8.6.887Z" fill="#707070"/>
</svg>
