<svg xmlns="http://www.w3.org/2000/svg" width="20.273" height="16.754" viewBox="0 0 20.273 16.754">
  <g id="record-svgrepo-com" transform="translate(0)">
    <path id="Path_208973" data-name="Path 208973" d="M20.273,9.248H17.1V7.88H8.443L7.417,5.145H0V21.9H17.1v-.3Zm-.882.684L17.1,18.855V9.932Zm-9.133,9.916H2.052V14.719h8.206Z" transform="translate(0 -5.145)" fill="#879eff"/>
    <path id="Path_208974" data-name="Path 208974" d="M14.838,35.145H8v3.761h6.838Zm-3.32.783a.358.358,0,0,1,.486,0,.352.352,0,0,1,.1.243.342.342,0,1,1-.585-.243Zm-2.493-.1h1.368a.342.342,0,1,1,0,.684H9.026a.342.342,0,0,1,0-.684ZM12.1,38.222H9.026a.342.342,0,0,1,0-.684H12.1a.342.342,0,0,1,0,.684Zm1.61-.1a.36.36,0,0,1-.243.1.344.344,0,0,1-.342-.342.35.35,0,0,1,.1-.243.343.343,0,0,1,.486.486Zm.1-1.61h-.684a.342.342,0,0,1,0-.684h.684a.342.342,0,0,1,0,.684Z" transform="translate(-5.265 -24.887)" fill="#879eff"/>
  </g>
</svg>
