<svg xmlns="http://www.w3.org/2000/svg" width="30.07" height="23.959" viewBox="0 0 30.07 23.959">
  <g id="road-svgrepo-com_1_" data-name="road-svgrepo-com (1)" transform="translate(0 0)">
    <path id="Path_208978" data-name="Path 208978" d="M29.957,73.7l-7.639-21.79a1.019,1.019,0,0,0-.961-.683H8.7a1.02,1.02,0,0,0-.962.683L.057,73.828a1.02,1.02,0,0,0,.962,1.356H29.051a1.02,1.02,0,0,0,.906-1.487Z" transform="translate(0 -51.225)" fill="#4e6be2"/>
    <path id="Path_208979" data-name="Path 208979" d="M151.068,75.184h.01a1.02,1.02,0,0,0,.907-1.487l-7.639-21.79a1.019,1.019,0,0,0-.961-.683H130.729a1.02,1.02,0,0,0-.962.683" transform="translate(-122.027 -51.225)" fill="#3a53ff"/>
    <g id="Group_64929" data-name="Group 64929" transform="translate(14.624 1.32)">
      <path id="Path_208980" data-name="Path 208980" d="M245.987,76.119a.411.411,0,0,1-.411.411h0a.411.411,0,0,1-.411-.411V73.77a.411.411,0,0,1,.411-.411h0a.411.411,0,0,1,.411.411Z" transform="translate(-245.165 -73.359)" fill="#f6f5f5"/>
      <path id="Path_208981" data-name="Path 208981" d="M245.987,177.534a.411.411,0,0,1-.411.411h0a.411.411,0,0,1-.411-.411v-2.349a.411.411,0,0,1,.411-.411h0a.411.411,0,0,1,.411.411Z" transform="translate(-245.165 -168.725)" fill="#f6f5f5"/>
      <path id="Path_208982" data-name="Path 208982" d="M245.987,278.95a.411.411,0,0,1-.411.411h0a.411.411,0,0,1-.411-.411V276.6a.411.411,0,0,1,.411-.411h0a.411.411,0,0,1,.411.411Z" transform="translate(-245.165 -264.091)" fill="#f6f5f5"/>
      <path id="Path_208983" data-name="Path 208983" d="M245.987,380.365a.411.411,0,0,1-.411.411h0a.411.411,0,0,1-.411-.411v-2.349a.411.411,0,0,1,.411-.411h0a.411.411,0,0,1,.411.411Z" transform="translate(-245.165 -359.457)" fill="#f6f5f5"/>
    </g>
  </g>
</svg>
