<svg id="platforms" xmlns="http://www.w3.org/2000/svg" xmlns:xlink="http://www.w3.org/1999/xlink" width="53.78" height="55.515" viewBox="0 0 53.78 55.515">
  <defs>
    <linearGradient id="linear-gradient" x1="0.5" x2="0.5" y2="1" gradientUnits="objectBoundingBox">
      <stop offset="0" stop-color="#0398ee"/>
      <stop offset="1" stop-color="#0b17fd"/>
    </linearGradient>
  </defs>
  <g id="video" transform="translate(0 0)">
    <g id="Group_97645" data-name="Group 97645">
      <rect id="Rectangle_1" data-name="Rectangle 1" width="53.78" height="55.515" rx="26.89" fill="url(#linear-gradient)"/>
      <g id="send-svgrepo-com" transform="translate(8.18 10.801)">
        <g id="Group_64797" data-name="Group 64797" transform="translate(0 0)">
          <path id="Path_208937" data-name="Path 208937" d="M33.447.668s-.006-.007-.008-.01S33.421.65,33.413.643a1.307,1.307,0,0,0-.251-.154c-.028-.014-.049-.038-.079-.051l-.01,0C33.041.422,33.016.4,32.985.388a1.4,1.4,0,0,0-.367-.069c-.038,0-.075-.02-.113-.02a1.409,1.409,0,0,0-.49.083L.93,11.686a1.412,1.412,0,0,0-.338,2.478l9.4,6.713,1.327,9.293a1.413,1.413,0,0,0,2.529.647l3.334-4.444,8.744,7.5a1.416,1.416,0,0,0,.921.34,1.44,1.44,0,0,0,.472-.081,1.416,1.416,0,0,0,.917-1.078L33.93,2A1.409,1.409,0,0,0,33.447.668ZM15.9,23.354l-.1.147-2.169,2.892-.821-5.751,12.26-10.626Z" transform="translate(0.001 -0.299)" fill="#fff"/>
        </g>
      </g>
    </g>
  </g>
</svg>
