<svg id="Group_63526" data-name="Group 63526" xmlns="http://www.w3.org/2000/svg" width="35.964" height="32.902" viewBox="0 0 35.964 32.902">
  <g id="Group_64928" data-name="Group 64928">
    <path id="Path_152" data-name="Path 152" d="M298.8,126.631a2.236,2.236,0,0,1-.431-.042v1.722a.431.431,0,0,0,.862,0v-1.722A2.234,2.234,0,0,1,298.8,126.631Z" transform="translate(-285.505 -121.741)" fill="#013177"/>
    <g id="Group_40" data-name="Group 40" transform="translate(10.633)">
      <path id="Path_153" data-name="Path 153" d="M297.688,124.646a2.66,2.66,0,1,1,2.66-2.661A2.663,2.663,0,0,1,297.688,124.646Zm0-4.459a1.8,1.8,0,1,0,1.8,1.8A1.8,1.8,0,0,0,297.688,120.187Z" transform="translate(-295.027 -119.325)" fill="#707070"/>
    </g>
    <path id="Path_154" data-name="Path 154" d="M288.688,131.513l-1.676-2.26a.431.431,0,0,0-.6-.089l-1.983,1.471a.43.43,0,0,0-.089.6l1.676,2.26a.43.43,0,0,0,.6.089l1.983-1.471a.431.431,0,0,0,.089-.6Z" transform="translate(-280.81 -122.57)" fill="#707070"/>
    <path id="Path_155" data-name="Path 155" d="M311.409,130.635l-1.983-1.472a.43.43,0,0,0-.6.089l-1.677,2.26a.431.431,0,0,0,.089.6l1.983,1.471a.432.432,0,0,0,.257.085.509.509,0,0,0,.063,0,.433.433,0,0,0,.283-.17l1.676-2.26A.43.43,0,0,0,311.409,130.635Z" transform="translate(-288.398 -122.57)" fill="#707070"/>
    <path id="Path_156" data-name="Path 156" d="M301.787,132.683a13.293,13.293,0,1,0,3.893,9.4A13.209,13.209,0,0,0,301.787,132.683Z" transform="translate(-279.094 -122.473)" fill="#5061e0"/>
    <g id="Group_41" data-name="Group 41" transform="translate(2.172 8.488)">
      <ellipse id="Ellipse_1" data-name="Ellipse 1" cx="9.688" cy="9.688" rx="9.688" ry="9.688" transform="matrix(0.161, -0.987, 0.987, 0.161, 0, 19.124)" fill="#fff"/>
      <path id="Path_157" data-name="Path 157" d="M293.97,153.784a10.119,10.119,0,1,1,10.119-10.119A10.13,10.13,0,0,1,293.97,153.784Zm0-19.376a9.257,9.257,0,1,0,9.258,9.257A9.268,9.268,0,0,0,293.97,134.408Z" transform="translate(-282.849 -132.544)" fill="#707070"/>
    </g>
    <path id="Path_158" data-name="Path 158" d="M298.8,133.546a.431.431,0,0,0-.431.43v2.589a.431.431,0,1,0,.862,0v-2.589A.431.431,0,0,0,298.8,133.546Z" transform="translate(-285.505 -124.056)" fill="#707070"/>
    <path id="Path_159" data-name="Path 159" d="M298.8,158.7a.431.431,0,0,0-.431.43v2.588a.431.431,0,1,0,.862,0v-2.588A.431.431,0,0,0,298.8,158.7Z" transform="translate(-285.505 -132.424)" fill="#707070"/>
    <path id="Path_160" data-name="Path 160" d="M312.026,148.063h-2.589a.431.431,0,0,0,0,.862h2.589a.431.431,0,1,0,0-.862Z" transform="translate(-289.045 -128.885)" fill="#707070"/>
    <path id="Path_161" data-name="Path 161" d="M286.87,148.063h-2.589a.431.431,0,0,0,0,.862h2.589a.431.431,0,0,0,0-.862Z" transform="translate(-280.676 -128.885)" fill="#707070"/>
    <path id="Path_162" data-name="Path 162" d="M304.656,139.23a.432.432,0,0,0-.419-.089c-3.631,1.172-5.745,6-5.833,6.208a.43.43,0,0,0,.4.6.422.422,0,0,0,.2-.051,17.789,17.789,0,0,0,2.6-1.778,8.319,8.319,0,0,0,3.187-4.484A.432.432,0,0,0,304.656,139.23Z" transform="translate(-285.506 -125.91)" fill="#4e6be2"/>
    <g id="Group_42" data-name="Group 42" transform="translate(17.154 18.218)">
      <path id="Path_163" data-name="Path 163" d="M323.482,149.309l-2.558-2.559a.431.431,0,0,0-.609,0l-8.573,8.573-3.877-3.878a.432.432,0,0,0-.61,0l-2.33,2.33a.431.431,0,0,0,0,.609l6.741,6.74a.431.431,0,0,0,.609,0l11.208-11.207A.43.43,0,0,0,323.482,149.309Z" transform="translate(-304.798 -146.624)" fill="#3a53ff"/>
      <path id="Path_164" data-name="Path 164" d="M311.854,157.655a.444.444,0,0,0-.091.029l-3.9-3.9a.432.432,0,0,0-.61,0l-2.33,2.33a.431.431,0,0,0,0,.609l6.707,6.707a.428.428,0,0,0,.222.118Z" transform="translate(-304.798 -148.964)" fill="#3a53ff"/>
    </g>
  </g>
</svg>
