<svg xmlns="http://www.w3.org/2000/svg" xmlns:xlink="http://www.w3.org/1999/xlink" width="23.848" height="17.11" viewBox="0 0 23.848 17.11">
  <defs>
    <linearGradient id="linear-gradient" x1="0.5" y1="-0.031" x2="0.5" y2="1.052" gradientUnits="objectBoundingBox">
      <stop offset="0" stop-color="#01b6eb"/>
      <stop offset="1" stop-color="#0c00ff"/>
    </linearGradient>
  </defs>
  <path id="Exclusion_3" data-name="Exclusion 3" d="M19.913,17.11A2.156,2.156,0,0,1,17.825,14.9c0-.033,0-.067,0-.1H6.784v.009c0,.03,0,.06,0,.09A2.156,2.156,0,0,1,4.7,17.11,2.156,2.156,0,0,1,2.611,14.9c0-.033,0-.067,0-.1H1.566a.288.288,0,0,1-.279-.3v-2.41a.289.289,0,0,1,.279-.3h1.08A5.063,5.063,0,0,1,0,7.345V5.062a5.147,5.147,0,0,1,.037-.614V2.3A2.233,2.233,0,0,1,2.227.035H4.463A5.1,5.1,0,0,1,5.063,0h5.783a5.074,5.074,0,0,1,.6.035h2.274A2.232,2.232,0,0,1,15.908,2.3V7.345a5.064,5.064,0,0,1-2.646,4.45h3.451l.071-5.91a.289.289,0,0,1,.28-.293,7.229,7.229,0,0,1,2.71.527l.006,0,.052.021.045.019.006,0a7.577,7.577,0,0,1,2.836,2.08l0,0,.008.01.012.014.012.014.019.022.02.024.062.075.015.019.015.019.024.031.006.007.026.033c.027.034.052.068.077.1l.005.007.005.007.008.011.008.011.022.031,0,0,0,0a4.337,4.337,0,0,1,.773,2.491V14.5a.289.289,0,0,1-.28.3H22v.009c0,.03,0,.06,0,.09A2.156,2.156,0,0,1,19.913,17.11Z" transform="translate(0 0)" fill="url(#linear-gradient)"/>
</svg>
