<svg id="Group_97196" data-name="Group 97196" xmlns="http://www.w3.org/2000/svg" xmlns:xlink="http://www.w3.org/1999/xlink" width="20.012" height="17.618" viewBox="0 0 20.012 17.618">
  <defs>
    <linearGradient id="linear-gradient" x1="0.5" x2="0.5" y2="1" gradientUnits="objectBoundingBox">
      <stop offset="0" stop-color="#fada35"/>
      <stop offset="1" stop-color="#efb300"/>
    </linearGradient>
  </defs>
  <path id="Path_239" data-name="Path 239" d="M57.539,128.869a.287.287,0,0,0,.265-.294V126.6a.3.3,0,0,0-.082-.21.264.264,0,0,0-.2-.084,3.588,3.588,0,0,0-2.585,1.189,4.084,4.084,0,0,0-1.057,2.495H51.194a.279.279,0,0,0-.266.218l-3.4,13.344a.311.311,0,0,0,.047.256.269.269,0,0,0,.219.116h9.73a.286.286,0,0,0,.275-.295V130.343a.285.285,0,0,0-.275-.294H56.24A1.405,1.405,0,0,1,57.539,128.869Z" transform="translate(-47.523 -126.301)" fill="url(#linear-gradient)"/>
  <path id="Path_240" data-name="Path 240" d="M81.478,143.547l-3.4-13.344a.279.279,0,0,0-.266-.218H75.129a4.079,4.079,0,0,0-1.057-2.495,3.587,3.587,0,0,0-2.584-1.189h-.005v2.569a1.405,1.405,0,0,1,1.289,1.179H71.482v13.87h9.73a.27.27,0,0,0,.219-.116A.311.311,0,0,0,81.478,143.547Z" transform="translate(-61.476 -126.301)" fill="url(#linear-gradient)"/>
  <g id="Group_61" data-name="Group 61" transform="translate(6.482 8.501)">
    <g id="Group_59" data-name="Group 59" transform="translate(0 0.061)">
      <path id="Path_241" data-name="Path 241" d="M66.651,149.357H65.427l-.793-1.641-.321.205v1.436h-1.09v-4.292h1.09v1.864a5.14,5.14,0,0,1,.332-.548l.843-1.316h1.186l-1.266,1.923Z" transform="translate(-63.223 -145.065)" fill="#f6f5f5"/>
    </g>
    <g id="Group_60" data-name="Group 60" transform="translate(3.714)">
      <path id="Path_242" data-name="Path 242" d="M73.687,146.771h1.732v2.313a4.483,4.483,0,0,1-1.551.258,1.811,1.811,0,0,1-1.434-.575,2.407,2.407,0,0,1-.506-1.641,2.241,2.241,0,0,1,.555-1.618,2.05,2.05,0,0,1,1.553-.578,3.209,3.209,0,0,1,.715.076,2.89,2.89,0,0,1,.586.193l-.343.91a2.005,2.005,0,0,0-.952-.229.88.88,0,0,0-.734.33,1.5,1.5,0,0,0-.259.944,1.52,1.52,0,0,0,.235.917.792.792,0,0,0,.677.316,1.859,1.859,0,0,0,.445-.05v-.672h-.716Z" transform="translate(-71.927 -144.931)" fill="#f6f5f5"/>
    </g>
  </g>
</svg>
