<svg xmlns="http://www.w3.org/2000/svg" width="28.085" height="33.214" viewBox="0 0 28.085 33.214">
  <path id="Path_10193" data-name="Path 10193" d="M8427.517,2896.15h2.388a5.745,5.745,0,0,1,5.52,4.341q1.847,7.714,3.661,15.435a3.3,3.3,0,0,1-3.446,4.335c-3.882.009-7.765,0-11.646,0q-4.556,0-9.109,0a5.448,5.448,0,0,1-1.117-.1,3.222,3.222,0,0,1-2.529-4.084q1.837-7.843,3.723-15.677a5.737,5.737,0,0,1,5.427-4.251c.786-.008,1.573,0,2.5,0a4.884,4.884,0,0,1-2.5-4.688,4.619,4.619,0,0,1,1.691-3.272,4.835,4.835,0,0,1,6.791.557A4.908,4.908,0,0,1,8427.517,2896.15Zm-2.346-2.121a2.161,2.161,0,1,0-2.152-2.176A2.156,2.156,0,0,0,8425.171,2894.029Z" transform="translate(-8411.128 -2887.052)" fill="#847333"/>
</svg>
